<?xml version="1.0" standalone="no"?>
<!DOCTYPE svg PUBLIC "-//W3C//DTD SVG 20010904//EN"
 "http://www.w3.org/TR/2001/REC-SVG-20010904/DTD/svg10.dtd">
<svg version="1.0" xmlns="http://www.w3.org/2000/svg"
 width="206.000000pt" height="206.000000pt" viewBox="0 0 206.000000 206.000000"
 preserveAspectRatio="xMidYMid meet">
<metadata>
Created by potrace 1.14, written by Peter Selinger 2001-2017
</metadata>
<g transform="translate(0.000000,206.000000) scale(0.100000,-0.100000)"
fill="#000000" stroke="none">
<path d="M1030 1965 c-6 -8 -9 -19 -6 -24 4 -5 2 -12 -4 -16 -5 -3 -10 0 -10
7 0 7 -6 2 -13 -12 -8 -15 -12 -52 -11 -93 2 -50 -9 -128 -42 -284 -45 -218
-52 -242 -84 -278 -18 -20 -18 -20 48 -22 37 -2 109 0 160 3 l94 6 -21 22
c-28 30 -35 52 -82 281 -43 204 -53 331 -28 361 6 7 8 18 4 24 -4 6 -1 17 5
25 7 8 10 15 7 15 -2 0 -10 -7 -17 -15z"/>
<path d="M836 1213 c5 -10 10 -62 12 -115 l3 -98 149 0 149 0 3 98 c2 53 7
105 12 115 8 16 -4 17 -164 17 -160 0 -172 -1 -164 -17z"/>
<path d="M520 1122 c0 -29 4 -52 9 -52 8 0 5 90 -4 99 -3 2 -5 -19 -5 -47z"/>
<path d="M1470 1150 c-5 -70 -5 -80 1 -80 11 0 15 42 8 75 -6 28 -7 28 -9 5z"/>
<path d="M470 909 c-24 -77 -52 -152 -62 -166 -12 -19 -14 -32 -7 -45 9 -16
24 -18 129 -18 103 0 120 2 129 17 7 13 4 27 -11 52 -12 18 -40 93 -63 165
-25 76 -48 132 -56 134 -10 1 -28 -41 -59 -139z"/>
<path d="M1415 908 c-26 -79 -53 -153 -61 -166 -8 -13 -12 -32 -9 -42 6 -18
16 -20 130 -20 115 0 124 1 130 20 4 12 -1 31 -13 48 -10 15 -38 89 -62 165
-26 82 -49 137 -56 137 -8 0 -32 -58 -59 -142z"/>
<path d="M794 981 c-16 -16 34 -21 212 -21 156 0 204 3 204 13 0 9 -48 12
-206 12 -113 0 -207 -2 -210 -4z"/>
<path d="M798 913 c-3 -26 -3 -26 -80 -24 -43 1 -82 0 -87 -3 -11 -7 12 -88
39 -133 18 -31 19 -36 5 -63 -8 -16 -15 -49 -15 -74 l0 -44 51 -4 c30 -2 59 2
69 9 23 16 170 246 170 267 0 18 41 86 52 86 12 0 58 -73 58 -92 0 -18 117
-205 153 -245 16 -18 31 -23 74 -23 l53 0 0 51 c0 28 -5 59 -11 71 -9 16 -6
32 15 78 14 32 29 72 32 89 l7 31 -87 0 c-85 0 -86 0 -86 25 l0 25 -204 0
-205 0 -3 -27z"/>
<path d="M986 881 c-13 -14 -16 -33 -14 -82 3 -61 4 -64 31 -67 l27 -3 0 74
c0 85 -15 111 -44 78z"/>
<path d="M411 838 c0 -55 9 -48 23 20 6 25 4 32 -8 32 -13 0 -16 -11 -15 -52z"/>
<path d="M1561 878 c0 -7 7 -29 14 -48 l13 -35 1 48 c1 35 -3 47 -14 47 -8 0
-15 -6 -14 -12z"/>
<path d="M895 708 c-28 -45 -65 -100 -84 -120 -18 -21 -29 -38 -23 -38 26 0
169 205 160 230 -2 6 -26 -26 -53 -72z"/>
<path d="M1057 773 c26 -70 145 -234 159 -220 4 4 -6 22 -23 40 -16 17 -51 67
-78 110 -46 75 -71 106 -58 70z"/>
<path d="M933 698 c-5 -7 -24 -39 -42 -70 -18 -32 -43 -66 -56 -76 -23 -18
-23 -24 -31 -235 l-7 -217 77 0 76 0 0 60 0 60 50 0 50 0 0 -65 0 -65 75 0 75
0 0 223 0 222 -29 27 c-15 15 -46 54 -67 87 l-39 61 -61 0 c-38 0 -65 -5 -71
-12z m94 -70 c40 -45 38 -48 -21 -48 -31 0 -56 4 -56 9 0 11 40 61 49 61 4 0
17 -10 28 -22z m-7 -121 c0 -22 -12 -28 -28 -14 -13 10 -14 9 -4 -10 7 -12 12
-49 12 -82 0 -59 -1 -61 -26 -61 -26 0 -26 0 -22 69 2 50 9 75 22 90 22 24 46
28 46 8z m40 -109 c0 -55 -1 -58 -25 -58 -24 0 -25 3 -25 61 0 33 5 70 11 81
11 21 12 21 25 -3 7 -13 13 -50 14 -81z m-151 0 c0 -53 -3 -68 -14 -68 -12 0
-15 16 -15 73 0 41 3 77 7 80 13 14 22 -18 22 -85z m214 65 c3 -10 5 -44 6
-75 0 -51 -2 -58 -19 -58 -17 0 -19 7 -19 67 1 37 3 71 5 75 9 14 22 9 27 -9z
m-213 -275 c0 -54 -3 -68 -15 -68 -12 0 -15 15 -15 73 0 41 3 77 7 80 14 14
23 -20 23 -85z m213 65 c3 -16 5 -52 6 -80 1 -46 -1 -53 -19 -53 -17 0 -19 7
-19 63 0 68 6 97 19 97 5 0 11 -12 13 -27z"/>
<path d="M420 487 c0 -96 -2 -221 -4 -278 -2 -57 -1 -74 1 -37 4 64 5 68 28
68 23 0 24 -3 27 -72 l3 -73 83 -3 82 -3 0 286 0 285 -110 0 -110 0 0 -173z
m40 123 c0 -27 -4 -40 -13 -40 -9 0 -14 14 -15 40 -1 30 2 40 13 40 11 0 15
-11 15 -40z m88 -3 c3 -32 0 -37 -17 -37 -18 0 -21 6 -21 41 0 33 3 40 18 37
12 -2 18 -14 20 -41z m78 0 c1 -25 -3 -37 -12 -37 -10 0 -14 13 -14 41 0 52
25 48 26 -4z m-166 -203 c0 -59 -3 -74 -15 -74 -11 0 -14 14 -14 63 0 71 6
100 20 92 5 -4 9 -40 9 -81z m89 -5 c0 -62 -2 -69 -19 -69 -18 0 -20 7 -20 64
0 78 7 101 25 86 9 -7 14 -36 14 -81z m81 5 c0 -59 -3 -74 -15 -74 -12 0 -15
15 -15 73 0 41 3 77 6 80 16 16 24 -10 24 -79z m-86 -141 c2 -10 5 -46 5 -80
0 -56 -2 -63 -19 -63 -18 0 -20 7 -20 64 0 67 6 96 20 96 5 0 11 -8 14 -17z
m86 -69 c0 -67 -2 -74 -20 -74 -17 0 -19 7 -19 63 1 64 13 102 30 92 5 -4 9
-40 9 -81z"/>
<path d="M1362 378 l3 -283 77 -3 77 -3 3 83 c3 81 4 82 28 83 24 0 25 -3 31
-85 3 -47 6 44 7 203 l2 287 -115 0 -115 0 2 -282z m45 224 c1 -31 -2 -42 -13
-42 -10 0 -14 13 -14 46 0 59 24 55 27 -4z m90 0 c2 -38 0 -42 -22 -42 -21 0
-25 5 -24 28 2 47 10 63 27 60 12 -2 18 -15 19 -46z m73 3 c0 -32 -4 -45 -14
-45 -10 0 -14 12 -14 38 0 40 4 52 19 52 5 0 9 -20 9 -45z m-161 -207 c0 -53
-3 -68 -14 -68 -12 0 -15 16 -15 73 0 41 3 77 7 80 13 14 22 -18 22 -85z m90
1 c0 -62 -2 -69 -19 -69 -18 0 -20 7 -20 73 0 78 5 93 26 76 8 -6 13 -36 13
-80z m71 6 c0 -59 -3 -75 -15 -75 -11 0 -14 15 -14 67 1 70 4 83 20 83 5 0 9
-34 9 -75z m-166 -141 c3 -9 6 -45 6 -80 0 -57 -2 -64 -20 -64 -17 0 -19 7
-19 63 0 68 6 97 19 97 4 0 11 -7 14 -16z m86 -70 c0 -67 -2 -74 -20 -74 -17
0 -19 7 -19 63 1 64 13 102 30 92 5 -4 9 -40 9 -81z"/>
<path d="M670 315 l0 -225 55 0 55 0 0 215 c0 118 0 218 0 223 0 4 -25 8 -55
10 l-55 3 0 -226z m80 84 c0 -67 -1 -69 -25 -69 -24 0 -25 2 -25 68 0 72 13
100 37 81 8 -8 13 -35 13 -80z m-2 -202 c3 -77 3 -77 -23 -77 -24 0 -25 2 -25
64 0 76 7 98 29 94 13 -3 17 -19 19 -81z"/>
<path d="M1220 315 l0 -225 60 0 60 0 0 225 0 225 -60 0 -60 0 0 -225z m90 83
l0 -69 -27 3 c-27 3 -28 5 -30 65 -1 45 2 67 14 78 28 28 43 1 43 -77z m-12
-201 c3 -76 3 -77 -22 -77 -25 0 -25 2 -25 68 1 37 6 73 11 80 22 26 33 4 36
-71z"/>
</g>
</svg>
